# xmcd
#
# Track frame offsets:
#	183
#	11415
#	25246
#	36346
#	47049
#	61698
#	73094
#	84022
#	97496
#	112340
#	129773
#	141159
#
# Disc length: 2052 seconds
#
# Revision: 0
# Processed by: cddbd v1.5.2PL0 Copyright (c) Steve Scherf et al.
# Submitted via: EasyCDDAExtractor 10.0.2.1
#
DISCID=a108020c
DTITLE=Reverend Robert - Preachin' Blues
DYEAR=2011
DGENRE=Blues
TTITLE0=Ramblin' Blues
TTITLE1=Love My Stuff
TTITLE2=Wore Out Walkin'
TTITLE3=Diddie Wa Diddie
TTITLE4=I Can't Be Satisfied
TTITLE5=Fishin' Blues
TTITLE6=Got Me Lyin'
TTITLE7=Ain't No Tellin'
TTITLE8=Preachin' Blues
TTITLE9=Feel Like Going Home
TTITLE10=Keep It Clean
TTITLE11=God Moves On The Water
EXTD=
EXTT0=
EXTT1=
EXTT2=
EXTT3=
EXTT4=
EXTT5=
EXTT6=
EXTT7=
EXTT8=
EXTT9=
EXTT10=
EXTT11=
PLAYORDER=
